<svg width="20" height="22" viewBox="0 0 20 22" fill="none" xmlns="http://www.w3.org/2000/svg">
<path d="M8.5407 0.126097L8.53717 0.127101C8.12859 0.243525 7.53236 0.499647 6.96952 0.773033C6.39842 1.05043 5.79373 1.37883 5.36211 1.66588C3.28734 3.03256 1.75231 4.86773 0.753542 7.1242L0.753193 7.12499L0.747678 7.13752C0.394757 7.9395 0.184906 8.41637 0.088638 9.52927C-1.13708e-05 10.5541 -7.40055e-06 12.1792 1.38132e-07 15.3102L3.36518e-07 21.8696H19.3462V10.6929C19.3462 10.0223 19.2626 9.35436 19.0975 8.70442C19.0973 8.70367 19.0971 8.70292 19.0969 8.70216C18.3263 5.5906 15.8052 2.48332 12.8612 1.00035L12.8602 0.999853C11.1971 0.164894 9.78527 -0.216957 8.54423 0.125122L8.5407 0.126097ZM18.2885 8.89407C18.4383 9.48359 18.5141 10.0895 18.5141 10.6977V21.0596H0.832093V15.3981C0.832093 10.3788 0.832093 9.29876 1.15936 8.32272C1.25085 8.04985 1.36792 7.78511 1.51772 7.4447C2.45595 5.32501 3.89035 3.61295 5.82996 2.3357C6.6058 1.81937 8.10335 1.09469 8.77094 0.904458C9.69112 0.650819 10.8549 0.90446 12.4787 1.71972C15.2122 3.09662 17.5758 6.01346 18.2885 8.89407Z" fill="#FFFFFF" fill-opacity="0.46"/>
<path fill-rule="evenodd" d="M6.1995 3.07648C6.90074 2.60462 8.25428 1.94237 8.85767 1.76853C9.68936 1.53674 10.7412 1.76853 12.2089 2.51356C14.6795 3.77184 16.8159 6.4374 17.46 9.06985C17.5954 9.60864 17.6639 10.1621 17.6639 10.7176V15.0301V20.1874H9.67306H1.68225V15.0136C1.68225 10.4304 1.68225 9.44128 1.97734 8.54988C2.06013 8.29976 2.16616 8.05733 2.30195 7.74535C3.14995 5.80826 4.44642 4.2437 6.1995 3.07648ZM12.3473 8.5946C12.3473 10.1812 11.1354 11.4549 9.67279 11.4549C8.18926 11.4549 6.99825 10.1812 6.99825 8.5946C6.99825 7.03039 8.18926 5.73433 9.67279 5.73433C11.1354 5.73433 12.3473 7.03039 12.3473 8.5946ZM11.1772 12.1699H11.5324C13.0786 12.1699 14.3532 13.533 14.3532 15.1866V16.1028C14.3532 16.7062 13.8935 17.1754 13.3503 17.1754H5.9953C5.43114 17.1754 4.99235 16.7062 4.99235 16.1028V15.1866C4.99235 13.533 6.24604 12.1699 7.79226 12.1699H8.14747C8.60716 12.4157 9.12953 12.5275 9.67279 12.5275C10.2161 12.5275 10.7175 12.4157 11.1772 12.1699Z" fill="#FFFFFF"/>
</svg>
