<svg xmlns="http://www.w3.org/2000/svg" width="31" height="23" viewBox="0 0 31 23" fill="none">
<path opacity="0.44" d="M24.6936 15.4822C25.1517 14.1096 25.4051 12.6007 25.4051 11.0169C25.4051 7.1527 23.8972 3.7346 21.5862 1.65506C21.6596 1.65066 21.7333 1.64763 21.8073 1.64597C25.9002 1.55424 29.3131 5.71941 29.4303 10.9491C29.5187 14.8974 27.7035 18.3237 25.0473 19.8052C25.0844 19.7399 25.1202 19.6717 25.1555 19.5996L25.1556 19.5995C25.5852 18.721 25.6364 17.7834 25.3291 16.8313L25.329 16.8309L25.3288 16.8304C25.1882 16.3965 25.0088 16.0153 24.6936 15.4822ZM21.4251 20.5204C22.6362 19.4797 23.6378 18.0773 24.3334 16.4358C24.445 16.662 24.5236 16.8594 24.5917 17.0693C24.8411 17.842 24.7959 18.5713 24.4595 19.259C24.3306 19.5223 24.2001 19.7077 24.006 19.9104C23.8135 20.1079 23.6328 20.2447 23.3935 20.3712C23.2985 20.421 23.2 20.4642 23.099 20.5006C22.815 20.5495 22.5256 20.5779 22.2318 20.5845C22.0064 20.5895 21.7831 20.5816 21.5623 20.5614C21.5161 20.549 21.4704 20.5354 21.4251 20.5204Z" fill="white"/>
  <path opacity="0.44" d="M21.6341 0.00230527C20.9447 0.0177548 20.2754 0.127325 19.6341 0.320851C19.9876 0.495268 20.3303 0.696985 20.6606 0.923953C20.9864 0.866426 21.3176 0.833224 21.6525 0.825717C26.0505 0.727156 29.9862 5.08373 30.1173 10.9338C30.2388 16.3538 27.0404 20.6394 23.0719 21.3187C22.7104 21.4117 22.3329 21.4429 21.9604 21.4127C21.4549 21.4121 20.9561 21.3529 20.469 21.2394C20.1403 21.4526 19.8 21.641 19.4495 21.8028C20.3012 22.1034 21.2023 22.2553 22.1323 22.2344C27.1346 22.1223 31.0783 17.0546 30.9407 10.9154C30.8031 4.77615 26.6364 -0.1098 21.6341 0.00230527Z" fill="#FFB00D"/>
  <path opacity="0.44" d="M6.85207 16.9105C6.65085 17.2724 6.53623 17.6891 6.53623 18.1326C6.53623 19.2748 7.29661 20.2393 8.33877 20.5477C8.63871 20.5851 8.94343 20.5996 9.25178 20.5898C9.36966 20.5861 9.48678 20.5789 9.60309 20.5683C8.48612 19.6235 7.54421 18.3727 6.85207 16.9105ZM6.48972 16.0668C5.89944 14.5431 5.568 12.8295 5.568 11.0178C5.568 7.1662 7.06597 3.75782 9.36421 1.67636C9.13023 1.65547 8.89354 1.64847 8.65466 1.65601C4.56285 1.78505 1.37945 6.12814 1.54434 11.3566C1.66697 15.2452 3.60721 18.5284 6.27697 19.9026C5.95054 19.3914 5.76135 18.7841 5.76135 18.1326C5.76135 17.3503 6.03412 16.6317 6.48972 16.0668Z" fill="white"/>
  <path opacity="0.44" d="M8.71173 0.00397153C9.58267 -0.0234958 10.4296 0.100842 11.2356 0.357362C10.8931 0.530931 10.5609 0.730221 10.2405 0.953347C9.74867 0.854716 9.246 0.811151 8.7377 0.827182C4.34079 0.965846 0.645669 5.52825 0.830119 11.3769C1 16.7636 4.38551 20.854 8.35442 21.3583C8.57118 21.4032 8.79574 21.4268 9.02581 21.4268C9.14683 21.4268 9.26631 21.4202 9.38394 21.4075C9.38487 21.4075 9.38581 21.4075 9.38674 21.4074C9.77306 21.3952 10.154 21.3489 10.5273 21.2705C10.8662 21.4869 11.2173 21.677 11.5789 21.8389C10.8884 22.072 10.163 22.207 9.4127 22.2306C4.41159 22.3884 0.200475 17.5406 0.00690925 11.4029C-0.186656 5.26516 3.71063 0.161691 8.71173 0.00397153Z" fill="white"/>
  <path d="M15.6316 21.3832C17.0508 21.3832 18.4118 20.9284 19.6057 20.1186C19.6903 20.2331 19.7833 20.3422 19.8865 20.449C19.9844 20.5504 20.0826 20.641 20.1845 20.7235C18.8452 21.6632 17.2902 22.2011 15.6316 22.2011C13.9731 22.2011 12.4182 21.6633 11.0789 20.7237C11.2996 20.5501 11.4976 20.349 11.6677 20.1255C12.8592 20.931 14.2165 21.3832 15.6316 21.3832ZM8.23112 15.7494C8.88341 17.3464 9.86346 18.6884 11.0469 19.6616C10.8775 19.8832 10.672 20.0758 10.4394 20.2308C9.20271 19.1878 8.18944 17.7823 7.50414 16.1413C7.72104 15.9733 7.96613 15.8399 8.23112 15.7494ZM7.96282 15.022C7.57201 13.8402 7.35456 12.5391 7.35456 11.1591C7.35456 5.34803 11.2107 0.93511 15.6316 0.93511C20.0525 0.93511 23.9087 5.34803 23.9087 11.1591C23.9087 12.0739 23.8131 12.954 23.6349 13.7877C23.6594 13.8322 23.6844 13.8765 23.7096 13.9205L23.7111 13.923L23.7125 13.9256C23.7756 14.0374 23.987 14.3789 24.1834 14.6847L24.1835 14.6849L24.2383 14.7704C24.5611 13.6389 24.7364 12.4238 24.7364 11.1591C24.7364 5.06084 20.6601 0.117188 15.6316 0.117188C10.6032 0.117188 6.52686 5.06084 6.52686 11.1591C6.52686 12.6586 6.77331 14.0883 7.21977 15.3918C7.44884 15.239 7.69815 15.1141 7.96282 15.022ZM20.4438 19.9107C20.363 19.827 20.291 19.7425 20.2257 19.6539C21.6244 18.5004 22.738 16.8311 23.3606 14.8347C23.417 14.9243 23.4753 15.016 23.5314 15.1034C23.6832 15.3399 23.8122 15.5453 23.9229 15.7279C23.2402 17.5473 22.1622 19.1026 20.8221 20.2323C20.6887 20.1422 20.568 20.0393 20.4438 19.9107Z" fill="white"/>
  <path d="M12.0665 19.45C12.2449 19.0446 12.344 18.5963 12.344 18.1249C12.344 16.3061 10.8696 14.8317 9.05078 14.8317C8.95553 14.8317 8.86121 14.8357 8.76801 14.8436C8.38293 13.6978 8.16968 12.4355 8.16968 11.1094C8.16968 5.8784 11.4884 1.63782 15.5822 1.63782C19.6761 1.63782 22.9948 5.8784 22.9948 11.1094C22.9948 11.4721 22.9789 11.8301 22.9478 12.1821C22.9244 12.1386 22.8913 12.0843 22.8467 12.0299C22.7946 11.9664 22.588 11.7307 22.2233 11.7307C21.9964 11.7307 21.8388 11.83 21.8035 11.8523L21.8024 11.8529C21.7422 11.8908 21.698 11.9298 21.6715 11.955C21.6165 12.0072 21.572 12.0628 21.5373 12.1146L21.5259 12.1318L21.5154 12.1494C21.4663 12.232 21.4295 12.3347 21.4195 12.3626L21.4195 12.3626L21.4179 12.3671C21.3981 12.4217 21.3763 12.4863 21.3563 12.5505L21.3554 12.5535L21.3544 12.5565C21.255 12.8849 21.0168 13.4147 20.731 13.9132L20.7297 13.9154L20.7285 13.9176C20.6654 14.0294 20.4539 14.3709 20.2576 14.6767L20.2575 14.6768C19.7341 15.4921 19.5017 15.8944 19.3024 16.3587C18.8524 17.4016 18.7989 18.3944 19.2036 19.3757C18.1328 20.1433 16.8975 20.5811 15.5822 20.5811C14.31 20.5811 13.1127 20.1715 12.0665 19.45ZM11.4289 18.9557C11.5197 18.6956 11.5691 18.416 11.5691 18.1249C11.5691 16.7361 10.4449 15.6098 9.05686 15.6065C9.62603 16.9521 10.4427 18.1017 11.4289 18.9557ZM20.0142 16.6649C19.6712 17.4595 19.6138 18.1694 19.84 18.8636C21.2173 17.6266 22.2502 15.8056 22.7181 13.6822C22.6935 13.6313 22.6695 13.5806 22.6464 13.5305C22.5979 13.4256 22.5528 13.3227 22.512 13.224C22.4598 13.0975 22.4146 12.9778 22.3784 12.869L22.3775 12.8662C22.3678 12.837 22.3588 12.8086 22.3505 12.781C22.3305 12.716 22.313 12.6638 22.2976 12.6231C22.2961 12.6193 22.2947 12.6155 22.2933 12.6119C22.2643 12.5379 22.2425 12.5056 22.2233 12.5056C22.2149 12.5056 22.1965 12.5229 22.1814 12.5454C22.168 12.5679 22.1296 12.6736 22.0961 12.781C22.0877 12.8086 22.0787 12.837 22.0691 12.8662L22.0685 12.8678C22.0323 12.9769 21.9872 13.0967 21.9349 13.2233C21.8941 13.3222 21.8489 13.4252 21.8002 13.5304C21.6838 13.7822 21.5475 14.0469 21.4032 14.2985C21.3279 14.4319 21.1054 14.7905 20.9096 15.0954C20.3891 15.9062 20.1866 16.263 20.0142 16.6649ZM19.3716 8.94535C18.8831 7.33905 18.1829 6.50099 16.9127 6.04703C15.2355 5.43594 14.6167 5.41848 13.8026 5.97719C13.4118 6.23909 12.907 6.69304 12.679 6.98986C12.451 7.28667 12.1091 7.61841 11.9137 7.72316C11.6043 7.89776 11.5554 8.07236 11.5554 8.94535C11.5554 9.78341 11.6368 10.0977 12.0602 10.7786C12.337 11.2326 12.793 11.8437 13.0698 12.1405C13.542 12.6468 13.6234 12.6643 14.5353 12.577C15.724 12.4547 16.2777 11.9833 16.2777 11.1103C16.2777 9.88817 15.5286 9.10248 14.6656 9.3993C14.3888 9.4866 14.3562 9.5739 14.4865 9.83579C14.7144 10.2897 14.6819 10.4818 14.3725 10.604C13.9491 10.7786 13.5095 10.0628 13.5095 9.18978C13.5095 8.50885 13.5583 8.42155 14.2097 8.01998C14.6005 7.77554 15.2844 7.54857 15.7892 7.49619C16.6685 7.39143 16.6848 7.40889 17.0593 8.00252C17.5804 8.80567 17.792 10.9358 17.4175 11.5818C17.043 12.2452 16.2614 12.9262 15.5449 13.2404C15.1867 13.3976 14.6005 13.6769 14.2422 13.869C13.884 14.0436 13.4606 14.2007 13.3141 14.2007C13.1675 14.2007 12.9884 14.2706 12.9395 14.3753C12.8907 14.4626 12.6627 14.5499 12.4347 14.5499C12.0276 14.5499 11.9137 14.7943 12.2068 14.9864C12.3045 15.0562 12.8418 15.2483 13.4118 15.4229C14.5028 15.7546 14.7307 15.7372 16.7336 15.1435C18.9319 14.4801 20.1532 11.5992 19.3716 8.94535Z" fill="white"/>
  <path d="M22.1766 12.555C22.1632 12.5776 22.1247 12.6832 22.0912 12.7906C21.969 13.1943 21.7013 13.7798 21.3984 14.3082C21.3231 14.4416 21.1005 14.8002 20.9047 15.105C20.3842 15.9158 20.1817 16.2726 20.0094 16.6745C19.6077 17.6048 19.5977 18.419 19.9759 19.228C20.0997 19.4948 20.2453 19.7062 20.4445 19.9123C20.6353 20.1098 20.8177 20.2466 21.0503 20.3696C21.7649 20.7438 22.6702 20.7456 23.3798 20.3731C23.6191 20.2466 23.7999 20.1098 23.9923 19.9123C24.1865 19.7096 24.317 19.5243 24.4458 19.2609C24.7822 18.5732 24.8274 17.8439 24.5781 17.0713C24.409 16.5498 24.1747 16.1063 23.5321 15.105C23.3363 14.8002 23.1137 14.4416 23.0384 14.3082C22.7389 13.7867 22.4678 13.1943 22.3456 12.7906C22.2853 12.5949 22.2485 12.5152 22.2184 12.5152C22.21 12.5152 22.1916 12.5325 22.1766 12.555Z" fill="white"/>
  <path d="M11.5638 18.1336C11.5638 19.5244 10.4363 20.6519 9.04544 20.6519C7.6546 20.6519 6.5271 19.5244 6.5271 18.1336C6.5271 16.7427 7.6546 15.6152 9.04544 15.6152C10.4363 15.6152 11.5638 16.7427 11.5638 18.1336Z" fill="white"/>
</svg>