<svg xmlns="http://www.w3.org/2000/svg" width="18" height="22" viewBox="0 0 18 22" fill="none">
<path d="M8.82297 20.6078C10.1982 20.6078 11.5171 20.1671 12.674 19.3824C12.7561 19.4933 12.8461 19.5991 12.9461 19.7026C13.0411 19.8008 13.1362 19.8886 13.235 19.9685C11.9371 20.8792 10.4302 21.4004 8.82297 21.4004C7.2158 21.4004 5.70899 20.8793 4.41118 19.9687C4.62506 19.8005 4.81692 19.6056 4.98173 19.389C6.13631 20.1696 7.4516 20.6078 8.82297 20.6078ZM1.65152 15.1484C2.28362 16.696 3.23335 17.9965 4.38017 18.9395C4.21596 19.1542 4.0169 19.3409 3.79144 19.4911C2.59304 18.4803 1.61113 17.1184 0.947044 15.5282C1.15723 15.3653 1.39474 15.2361 1.65152 15.1484ZM1.39152 14.4435C1.0128 13.2982 0.802089 12.0374 0.802089 10.7002C0.802089 5.06895 4.53888 0.792608 8.82297 0.792608C13.1071 0.792608 16.8439 5.06895 16.8439 10.7002C16.8439 11.5866 16.7513 12.4395 16.5785 13.2474C16.6023 13.2905 16.6265 13.3335 16.6509 13.3761L16.6524 13.3786L16.6537 13.381C16.7149 13.4894 16.9198 13.8203 17.1101 14.1166L17.1102 14.1168L17.1633 14.1997C17.4761 13.1032 17.6459 11.9257 17.6459 10.7002C17.6459 4.79064 13.6958 0 8.82297 0C3.95018 0 0 4.79064 0 10.7002C0 12.1533 0.238826 13.5387 0.671471 14.8019C0.893451 14.6538 1.13504 14.5328 1.39152 14.4435ZM13.4862 19.1809C13.4079 19.0998 13.3382 19.018 13.2749 18.932C14.6303 17.8142 15.7094 16.1966 16.3127 14.262C16.3674 14.3488 16.4239 14.4377 16.4783 14.5224C16.6253 14.7515 16.7503 14.9506 16.8577 15.1275C16.196 16.8907 15.1515 18.3978 13.8528 19.4925C13.7236 19.4052 13.6066 19.3055 13.4862 19.1809Z" fill="white"/>
  <path d="M5.36315 18.7424C5.53604 18.3495 5.63201 17.9151 5.63201 17.4583C5.63201 15.6958 4.20322 14.267 2.44072 14.267C2.34841 14.267 2.257 14.271 2.16667 14.2786C1.79349 13.1683 1.58682 11.9449 1.58682 10.6599C1.58682 5.59078 4.80283 1.48144 8.76997 1.48144C12.7371 1.48144 15.9531 5.59078 15.9531 10.6599C15.9531 11.0113 15.9377 11.3581 15.9076 11.6993C15.8849 11.6571 15.8528 11.6045 15.8096 11.5518C15.7591 11.4902 15.5589 11.2618 15.2055 11.2618C14.9856 11.2618 14.8329 11.358 14.7987 11.3796L14.7977 11.3803C14.7393 11.417 14.6964 11.4548 14.6708 11.4791C14.6175 11.5297 14.5744 11.5837 14.5408 11.6339L14.5297 11.6505L14.5195 11.6676C14.4719 11.7476 14.4363 11.8472 14.4266 11.8742L14.425 11.8785C14.4058 11.9314 14.3847 11.994 14.3653 12.0562L14.3644 12.0592L14.3635 12.0621C14.2672 12.3803 14.0363 12.8937 13.7594 13.3767L13.7582 13.3789L13.757 13.381C13.6958 13.4894 13.4909 13.8203 13.3006 14.1166L13.3005 14.1167C12.7934 14.9068 12.5681 15.2966 12.3751 15.7465C11.9389 16.7573 11.8871 17.7193 12.2793 18.6703C11.2416 19.4142 10.0445 19.8384 8.76997 19.8384C7.53717 19.8384 6.37691 19.4416 5.36315 18.7424ZM4.7452 18.2634C4.83326 18.0113 4.88112 17.7404 4.88112 17.4583C4.88112 16.1125 3.79169 15.0211 2.44659 15.0179C2.99816 16.3219 3.78954 17.4359 4.7452 18.2634ZM13.0648 16.0433C12.7324 16.8133 12.6768 17.5012 12.896 18.1741C14.2307 16.9753 15.2316 15.2106 15.685 13.1529C15.6611 13.1036 15.6379 13.0545 15.6155 13.0059C15.5685 12.9042 15.5248 12.8046 15.4853 12.7089C15.4347 12.5863 15.3909 12.4703 15.3558 12.3649L15.3549 12.3622C15.3456 12.3338 15.3368 12.3063 15.3287 12.2796C15.3093 12.2166 15.2925 12.1661 15.2775 12.1266C15.2761 12.1229 15.2747 12.1193 15.2733 12.1157C15.2453 12.044 15.2241 12.0127 15.2055 12.0127C15.1974 12.0127 15.1795 12.0295 15.1649 12.0513C15.152 12.0731 15.1147 12.1755 15.0822 12.2796C15.0741 12.3063 15.0654 12.3339 15.056 12.3622L15.0555 12.3637C15.0205 12.4694 14.9767 12.5855 14.926 12.7082C14.8865 12.804 14.8427 12.9038 14.7955 13.0058C14.6828 13.2498 14.5507 13.5063 14.4108 13.7502C14.3379 13.8794 14.1222 14.2269 13.9324 14.5224C13.4281 15.308 13.2318 15.6539 13.0648 16.0433ZM12.4418 8.56256C11.9684 7.00599 11.2899 6.19386 10.0591 5.75395C8.43379 5.16178 7.83416 5.14486 7.04518 5.68628C6.66647 5.94007 6.1773 6.37997 5.95638 6.6676C5.73547 6.95523 5.40409 7.27669 5.21474 7.37821C4.91492 7.5474 4.86759 7.7166 4.86759 8.56256C4.86759 9.37469 4.94648 9.67924 5.35675 10.3391C5.62501 10.779 6.06684 11.3712 6.33509 11.6588C6.7927 12.1495 6.8716 12.1664 7.75526 12.0818C8.90717 11.9633 9.44368 11.5065 9.44368 10.6606C9.44368 9.47621 8.71782 8.71484 7.8815 9.00247C7.61324 9.08706 7.58168 9.17166 7.70792 9.42545C7.92884 9.86535 7.89728 10.0515 7.59746 10.1699C7.18719 10.3391 6.76114 9.6454 6.76114 8.79943C6.76114 8.13958 6.80848 8.05498 7.43967 7.66584C7.81838 7.42897 8.48112 7.20902 8.97029 7.15826C9.82239 7.05674 9.83817 7.07366 10.2011 7.64892C10.7061 8.42721 10.9112 10.4914 10.5483 11.1174C10.1853 11.7603 9.4279 12.4202 8.7336 12.7247C8.38645 12.877 7.81838 13.1477 7.47123 13.3338C7.12407 13.503 6.7138 13.6553 6.57179 13.6553C6.42977 13.6553 6.25619 13.723 6.20886 13.8245C6.16152 13.9091 5.9406 13.9937 5.71969 13.9937C5.3252 13.9937 5.21474 14.2305 5.49877 14.4167C5.59345 14.4843 6.11418 14.6704 6.66647 14.8396C7.7237 15.1611 7.94462 15.1442 9.88551 14.5689C12.0158 13.926 13.1992 11.1343 12.4418 8.56256Z" fill="white"/>
  <path d="M15.1654 12.0532C15.1524 12.075 15.1151 12.1774 15.0827 12.2815C14.9643 12.6726 14.7048 13.24 14.4113 13.752C14.3383 13.8813 14.1226 14.2288 13.9329 14.5243C13.4285 15.3099 13.2323 15.6557 13.0653 16.0452C12.6761 16.9467 12.6663 17.7357 13.0328 18.5196C13.1528 18.7782 13.2939 18.983 13.4869 19.1827C13.6718 19.3741 13.8486 19.5067 14.074 19.6259C14.7665 19.9885 15.6438 19.9902 16.3314 19.6293C16.5633 19.5067 16.7385 19.3741 16.925 19.1827C17.1131 18.9863 17.2396 18.8067 17.3644 18.5515C17.6904 17.8851 17.7342 17.1783 17.4926 16.4296C17.3288 15.9243 17.1017 15.4946 16.479 14.5243C16.2892 14.2288 16.0736 13.8813 16.0006 13.752C15.7103 13.2468 15.4476 12.6726 15.3292 12.2815C15.2708 12.0918 15.2351 12.0146 15.2059 12.0146C15.1978 12.0146 15.18 12.0314 15.1654 12.0532Z" fill="white"/>
  <path d="M4.88108 17.4587C4.88108 18.8065 3.78848 19.8991 2.44069 19.8991C1.09289 19.8991 0.000289917 18.8065 0.000289917 17.4587C0.000289917 16.1109 1.09289 15.0183 2.44069 15.0183C3.78848 15.0183 4.88108 16.1109 4.88108 17.4587Z" fill="white"/>
</svg>