<svg xmlns="http://www.w3.org/2000/svg" viewBox="0 0 20 27">
  <path fill="white" d="M1 7.75V23a4 4 0 0 0 4 4h11a4 4 0 0 0 4-4V5a4 4 0 0 0-4-4H7v1h9a3 3 0 0 1 3 3v18a3 3 0 0 1-3 3H5a3 3 0 0 1-3-3V8.375zm2 1.07V23a2 2 0 0 0 2 2h11a2 2 0 0 0 2-2V5a2 2 0 0 0-2-2H7v2.946a1 1 0 0 1-.47.848l-3 1.875A1 1 0 0 1 3 8.82m9.318-1.16c1.735.63 2.691 1.796 3.358 4.03 1.068 3.691-.6 7.698-3.603 8.62-2.736.826-3.047.85-4.537.39-.779-.244-1.513-.51-1.646-.608-.4-.267-.245-.607.311-.607.311 0 .623-.122.69-.243.066-.146.311-.243.511-.243s.779-.218 1.268-.461a30 30 0 0 1 1.78-.874c.978-.437 2.046-1.384 2.557-2.307.512-.898.223-3.86-.49-4.978-.51-.825-.533-.85-1.734-.704-.69.073-1.624.388-2.158.728-.89.559-.956.68-.956 1.627 0 1.214.6 2.21 1.179 1.967.422-.17.467-.437.156-1.068-.178-.364-.134-.486.244-.607 1.18-.413 2.202.68 2.202 2.38 0 1.213-.756 1.87-2.38 2.04-1.245.12-1.356.096-2.001-.608-.379-.413-1.001-1.263-1.38-1.894C5.112 13.293 5 12.856 5 11.69c0-1.214.067-1.457.49-1.7.266-.145.733-.606 1.045-1.02.311-.412 1-1.043 1.534-1.408 1.113-.777 1.958-.752 4.249.098"/>
  <path fill="white" d="M5 0H1a1 1 0 0 0-1 1v4.465a1 1 0 0 0 .445.832l2 1.333a1 1 0 0 0 1.11 0l2-1.333A1 1 0 0 0 6 5.465V1A1 1 0 0 0 5 0"/>
</svg>
